<svg xmlns="http://www.w3.org/2000/svg" width="44" height="44" viewBox="0 0 44 44">
  <g id="Group_158" data-name="Group 158" transform="translate(-5593 2371)">
    <g id="Group_5" data-name="Group 5" transform="translate(4348 -2539)">
      <rect id="Rectangle_1" data-name="Rectangle 1" width="44" height="44" transform="translate(1245 168)" fill="none"/>
    </g>
    <g id="Group_157" data-name="Group 157" transform="matrix(0.999, 0.035, -0.035, 0.999, 5238.864, -2617.474)">
      <path id="Path_1" data-name="Path 1" d="M446.741,259.132a1.325,1.325,0,0,0-.1-1.913c-.691-.649-1.3.052-1.908.323a3.173,3.173,0,0,1,.559-3.417,5.93,5.93,0,0,0,1.138-4.018c-.007-.352-.45-.922.3-1.1l.524.674a5.761,5.761,0,0,0,1.276,2.607c1.544,1.608.733,5.891-1.18,7.144C447.031,259.578,446.71,259.712,446.741,259.132Z" transform="translate(-51.69 -8.527)" fill="#100f10"/>
      <path id="Path_2" data-name="Path 2" d="M430.433,238.78c.28.548-.191.658-.495.893a.989.989,0,0,0-.266,1.36.656.656,0,0,0,1.053.112c.587-.482.533-.027.5.334a1.34,1.34,0,0,1-1.166,1.222,1.185,1.185,0,0,1-1.538-.629,12.262,12.262,0,0,0-3.079-3.878C427.171,236.794,428.244,236.92,430.433,238.78Z" transform="translate(-38.495 -0.375)" fill="#100f10"/>
      <path id="Path_3" data-name="Path 3" d="M371.152,306.9a5.229,5.229,0,0,1-1.251-3.371c.493-.3.593.115.754.417a2.647,2.647,0,0,0,2.071,1.693,3.659,3.659,0,0,1,2.959,2.332c.5,1.264-.454,1.993-1.075,2.841-.53.122-.719-.107-.633-.618l.029.06c.22-.533.42-1.064-.141-1.525-.675-.207-1.366-.575-1.95.183-.525.38-.4-.146-.454-.348C371.3,308.018,371.736,307.365,371.152,306.9Z" transform="translate(0 -46.241)" fill="#d9001a"/>
      <path id="Path_4" data-name="Path 4" d="M397.948,242.053c-.154.562-.764.561-1.1.9-.333.148-.744.288-1,.019-.3-.323.093-.633.234-.936l.017.012c.854-.7.264-1.255-.175-1.828l-.074-.038c-.269-.771-1.4.009-1.6-.893l-.006,0c.67-.214,1.493-.094,1.9-.876l.7-.667c.9-.107,1.823-.452,2.625.294l.833.346c-.216,1.048-1.027,1.758-1.5,2.657A2.508,2.508,0,0,1,397.948,242.053Z" transform="translate(-16.876 -0.601)" fill="#d9001a"/>
      <path id="Path_5" data-name="Path 5" d="M449.559,326.651c-.281-.1-.315-.3-.335-.583-.135-1.914-.4-2.123-2.42-1.863l1.394-2.94a3.9,3.9,0,0,0,2.47,1.97c1.2.228,1.9-.592,2.708-1.258.3.656-.238,1.039-.251,1.525Z" transform="translate(-53.303 -58.606)" fill="#100f10"/>
      <path id="Path_6" data-name="Path 6" d="M383.209,329.763l1.15-.9c.372-.342.733-.577,1.01.095.352.457.7.865-.161,1.213a2.156,2.156,0,0,0-1.3,2.354,9.761,9.761,0,0,1-2.489-2.4C381.95,329.663,382.683,330.228,383.209,329.763Z" transform="translate(-7.986 -63.639)" fill="#d9001a"/>
      <path id="Path_7" data-name="Path 7" d="M401.479,350.029l1.38-.151c.351.024.708-.026,1.052.027.669.1.614.384.138.726q-2.048,2.359-4.9-.215C399.773,349.353,400.687,350.054,401.479,350.029Z" transform="translate(-20.274 -78.403)" fill="#d9001a"/>
      <path id="Path_8" data-name="Path 8" d="M429,348.112c.754-.645,1.7-.274,2.538-.41,1.243-.2,2.245-1.056,3.507-1.1C433.687,349.343,431.119,349.522,429,348.112Z" transform="translate(-40.963 -76.169)" fill="#100f10"/>
      <path id="Path_9" data-name="Path 9" d="M400.138,349.183c-.757.243-1.662-.41-2.327.386-.386-.205-.68-.465-.571-.964Z" transform="translate(-18.933 -77.557)" fill="#d9001a"/>
      <path id="Path_10" data-name="Path 10" d="M385.144,253.047l.105-.349.226-.253c.573.258.06.771.262,1.117a1.405,1.405,0,0,1,.109,1.761c-.688.253-.653-.33-.762-.694A5.894,5.894,0,0,1,385.144,253.047Z" transform="translate(-10.485 -10.907)" fill="#d9001a"/>
      <path id="Path_11" data-name="Path 11" d="M392.856,243.149c.4.535,1.44-.083,1.6.892-.747-.626-1.482-.124-2.221.025C392.224,243.613,392.364,243.26,392.856,243.149Z" transform="translate(-15.477 -4.464)" fill="#d9001a"/>
      <path id="Path_12" data-name="Path 12" d="M412.423,350.354c.223-1.237-1.006-.164-1.191-.753a13.307,13.307,0,0,1,1.437-.174c1.039-.018.372.528.269.884Z" transform="translate(-28.647 -78.126)" fill="#d9001a"/>
      <path id="Path_13" data-name="Path 13" d="M381.354,325.479a.9.9,0,0,0,.633.618c-.221.714-.773.28-1.182.342C380.1,325.609,381.014,325.709,381.354,325.479Z" transform="translate(-7.377 -61.528)" fill="#d9001a"/>
      <path id="Path_14" data-name="Path 14" d="M405.371,237.443a6.02,6.02,0,0,0-2.625-.295C403.688,236.64,404.6,236.388,405.371,237.443Z" transform="translate(-22.765)" fill="#d9001a"/>
      <path id="Path_15" data-name="Path 15" d="M373.978,314.747c1.005.385-.054,1.556.762,2.013.126.6-.254.463-.582.4C373.977,316.365,374.336,315.529,373.978,314.747Z" transform="translate(-2.826 -54.089)" fill="#d9001a"/>
      <path id="Path_16" data-name="Path 16" d="M396.152,240.312c-.266,1.095-1.123.9-1.9.876Z" transform="translate(-16.876 -2.497)" fill="#d9001a"/>
      <path id="Path_17" data-name="Path 17" d="M383.209,332.5c-.5.613-1.2.183-1.786.359.36-.685,1.033-.147,1.507-.386A.331.331,0,0,0,383.209,332.5Z" transform="translate(-7.986 -66.373)" fill="#d9001a"/>
      <path id="Path_18" data-name="Path 18" d="M382.817,320.7c.726.445.658.964.141,1.525A2.139,2.139,0,0,0,382.817,320.7Z" transform="translate(-8.952 -58.218)" fill="#d9001a"/>
      <path id="Path_19" data-name="Path 19" d="M380.572,254.406c.712.673-.058,1.7.568,2.393a6.15,6.15,0,0,1,1.482,1.837c-.082.993,1.7.874,1.241,2.092-.272.377.1,1.1-.659,1.216-.6-.432-1.243-.552-1.711.09-.385.527-.531,1.16.223,1.626.1.064.056.376.079.573-.462.524-1.01.279-1.543.172a2.41,2.41,0,0,1-1.178-1.192,6.039,6.039,0,0,0,0-2.537,1.807,1.807,0,0,1-.6-1.755A9.338,9.338,0,0,1,380.572,254.406Z" transform="translate(-5.913 -12.266)" fill="#d9001a"/>
      <path id="Path_20" data-name="Path 20" d="M459.864,294.756a8.457,8.457,0,0,1,.3,5.732c-.144.45-.262,1.128-1.107.459a1.1,1.1,0,0,0-1.73.621c-.319.829.156,1.309,1.111,1.42a1.2,1.2,0,0,1-1.567.576,1.674,1.674,0,0,1-1.183-1.772c.279-2,.605-3.993,2.687-5.056C459.077,296.376,459.37,295.624,459.864,294.756Z" transform="translate(-59.446 -40.233)" fill="#100f10"/>
      <path id="Path_21" data-name="Path 21" d="M422.614,296.5c3.478,2.369,4.519,6.788,2.367,9.275-.416-1.606-.606-1.7-1.844-.97C422.968,302.105,422.8,299.4,422.614,296.5Z" transform="translate(-36.536 -41.439)" fill="#100f10"/>
      <path id="Path_22" data-name="Path 22" d="M411.078,306.689a2.647,2.647,0,0,0-.279.11c-1.622.856-1.732.76-2.055-1.145a6.583,6.583,0,0,1,1.9-5.588c.449-.525.834-.751,1.219.036a46.5,46.5,0,0,1,.128,6.064C412,306.816,411.621,306.934,411.078,306.689Z" transform="translate(-26.863 -43.584)" fill="#d9001a"/>
      <path id="Path_23" data-name="Path 23" d="M435.822,306.123c.993-.026,1.744-.247,1.858-1.337a6.459,6.459,0,0,1-.453,7.77c-.205.253-.76.714-.751.583.062-.872-1.818-.423-1.049-1.734A5.408,5.408,0,0,0,435.822,306.123Z" transform="translate(-45.289 -47.185)" fill="#100f10"/>
      <path id="Path_24" data-name="Path 24" d="M426.068,282.525c.629-.3,1.407-.3,1.187-1.215-.192-.8.5-.327.751-.5a1.573,1.573,0,0,0,.807-1.37.979.979,0,0,0-.622-.956c-.716-.312-.842.458-1.279.814a1.7,1.7,0,0,1,.377-2.58,1.728,1.728,0,0,1,2.444.373,3.9,3.9,0,0,1,.068,4.29C429.036,282.637,427.82,283.056,426.068,282.525Z" transform="translate(-38.93 -27.486)" fill="#100f10"/>
      <path id="Path_25" data-name="Path 25" d="M404.3,278.585a4.137,4.137,0,0,1,.674,1.657c-.166.376-.434.308-.718.164l-.934-.019c-.73.612-.382,1.3-.143,1.983.853.069.965.646.912,1.336l-.123.145c-.474.179-.992.11-1.471.265-2.083-2.3-2.087-3.831-.013-5.568A2.249,2.249,0,0,1,404.3,278.585Z" transform="translate(-21.507 -28.88)" fill="#d9001a"/>
      <path id="Path_26" data-name="Path 26" d="M400,310.538a5.435,5.435,0,0,0,.056,3.655,2.218,2.218,0,0,1-.985,2.68,8.941,8.941,0,0,1-1.217-6.522c.115-.529.362-.719.806-.26C399.018,310.508,399.69,309.979,400,310.538Z" transform="translate(-19.244 -50.682)" fill="#d9001a"/>
      <path id="Path_27" data-name="Path 27" d="M381.585,292.846c-.053,1.569-1.384,2.222-2.278,3.187a3.291,3.291,0,0,1-2.08.006l-.524-.485a4.582,4.582,0,0,1-.3-1.1c-.054-.327.141-.4.423-.255,1.278.288,2.15-.072,2.362-1.486.091-1.244,1.262-.512,1.779-.976l-.019.005C382.132,291.55,381.655,292.315,381.585,292.846Z" transform="translate(-4.502 -38.123)" fill="#d9001a"/>
      <path id="Path_28" data-name="Path 28" d="M436.21,335.811c-.809,2.958-3.364,3.113-6.058,3.722a29.746,29.746,0,0,1,4.152-4.013c.358-.311.938.673,1.56.243A.253.253,0,0,1,436.21,335.811Z" transform="translate(-41.761 -68.444)" fill="#100f10"/>
      <path id="Path_29" data-name="Path 29" d="M446.116,287.26a2.818,2.818,0,0,0,3.092.721c.595-.251.5.12.645.406.324.654.772,1.064,1.542.61a2.39,2.39,0,0,1-2.312,1.768C447.707,290.707,446.6,289.447,446.116,287.26Z" transform="translate(-52.826 -35.038)" fill="#100f10"/>
      <path id="Path_30" data-name="Path 30" d="M428.782,253.084c1.353,1.957,1.105,3.869-.711,5.844-.392-1.665-.385-1.661.008-2.561A12.165,12.165,0,0,0,428.782,253.084Z" transform="translate(-40.117 -11.35)" fill="#100f10"/>
      <path id="Path_31" data-name="Path 31" d="M461.44,277.725a4.827,4.827,0,0,0,1.174-3.545,5.467,5.467,0,0,1,1.208,4.561C463.072,278.166,462.529,277.484,461.44,277.725Z" transform="translate(-63.447 -25.972)" fill="#100f10"/>
      <path id="Path_32" data-name="Path 32" d="M421.855,253.224c.713.307,1.3.618,1.687-.381.358,2.2.06,3.141-1.28,4.19Z" transform="translate(-36.01 -11.183)" fill="#100f10"/>
      <path id="Path_33" data-name="Path 33" d="M442.115,255.169a3.652,3.652,0,0,1-.592,1.7c-.245.42-.453,1.051-.952,1.008-.3-.026-.55-.644-.837-.983-.474-.558-.175-.736.372-.905a2.443,2.443,0,0,0,1.711-1.769C442.516,254.347,442.109,254.823,442.115,255.169Z" transform="translate(-48.239 -12.136)" fill="#100f10"/>
      <path id="Path_34" data-name="Path 34" d="M423.987,334.755c-.081-1.773-.14-3.056-.207-4.528.591.57,1.107,1.054,2.166.589Z" transform="translate(-37.345 -64.819)" fill="#100f10"/>
      <path id="Path_35" data-name="Path 35" d="M414.132,335.425l-2.043-2.561c.36-.668,1.106,0,1.53-.444l.068-.061.084.038c.548-.25.574.169.594.5a1.8,1.8,0,0,0,.288,1.118C414.445,334.474,415.229,335.3,414.132,335.425Z" transform="translate(-29.241 -66.269)" fill="#d9001a"/>
      <path id="Path_36" data-name="Path 36" d="M434.726,266.807a12.261,12.261,0,0,1,1.286,3.665,5.1,5.1,0,0,0-2.738-1.813Z" transform="translate(-43.926 -20.861)" fill="#100f10"/>
      <path id="Path_37" data-name="Path 37" d="M397.458,340.447c.928-.378.723.88,1.349.938a6.421,6.421,0,0,0,1.261.578l-.009-.009c-.212,1.006-1.115.152-1.543.576a2.294,2.294,0,0,1-2.048-1.355C396.477,340.495,397.105,340.659,397.458,340.447Z" transform="translate(-18.414 -71.854)" fill="#d9001a"/>
      <path id="Path_38" data-name="Path 38" d="M447.828,301l2.48.584-1.124,3.1A12.085,12.085,0,0,0,447.828,301Z" transform="translate(-54.013 -44.56)" fill="#100f10"/>
      <path id="Path_39" data-name="Path 39" d="M373.484,284.271c-.987.73-1.315.381-1.223-.73a3.131,3.131,0,0,1,.637-1.639c.408-.3.47.129.649.31l.81,1.472C374.506,284.536,373.622,283.848,373.484,284.271Z" transform="translate(-1.625 -31.252)" fill="#d9001a"/>
      <path id="Path_40" data-name="Path 40" d="M408.827,260.94l-.089-.424a5.039,5.039,0,0,1,.018-2.547c.349-.189.459.051.559.311a4.659,4.659,0,0,0,.979,2.272c.7.625-.054.743-.345,1.025C409.357,261.75,409.168,261.211,408.827,260.94Z" transform="translate(-26.811 -14.688)" fill="#d9001a"/>
      <path id="Path_41" data-name="Path 41" d="M431.6,334.759a6.336,6.336,0,0,1-2.288,2.125c-.206-.962.493-1.5.775-2.165C430.658,333.373,431.038,335.268,431.6,334.759Z" transform="translate(-41.153 -67.591)" fill="#100f10"/>
      <path id="Path_42" data-name="Path 42" d="M415.385,255.11c.378.164.246.461.191.737a3.9,3.9,0,0,1-.1,2.605c-.394-.261-.826-.493-.824-1.062C414.554,256.52,413.974,255.494,415.385,255.11Z" transform="translate(-30.878 -12.754)" fill="#d9001a"/>
      <path id="Path_43" data-name="Path 43" d="M400.809,269.824a1.119,1.119,0,0,1,1.044,1.021c.159.821-.923.639-1.261,1.188-.122.2-.5-.173-.445-.529C400.25,270.884,400.271,270.217,400.809,269.824Z" transform="translate(-20.96 -22.952)" fill="#d9001a"/>
      <path id="Path_44" data-name="Path 44" d="M416.544,307.846c.8-.028.781-.6.78-1.17,0-1.805,0-3.611,0-5.416.446,2.155.113,4.344.282,6.511.018.224.119.562-.229.617C416.976,308.452,416.812,308.047,416.544,307.846Z" transform="translate(-32.329 -44.741)" fill="#d9001a"/>
      <path id="Path_45" data-name="Path 45" d="M391.94,260.712c-.154-.521-.743-.846-.66-1.474.306-.59.633-.336.962-.024.937.168.758.872.6,1.443C392.655,261.368,392.253,260.789,391.94,260.712Z" transform="translate(-14.813 -15.369)" fill="#d9001a"/>
      <path id="Path_46" data-name="Path 46" d="M421.159,243.575a3.19,3.19,0,0,1,1.7,1.554c-.411.275-1,.132-1.35.763A7.505,7.505,0,0,1,421.159,243.575Z" transform="translate(-35.515 -4.759)" fill="#100f10"/>
      <path id="Path_47" data-name="Path 47" d="M438.978,294.138l1.323-1.394.895,1.5A5.05,5.05,0,0,1,438.978,294.138Z" transform="translate(-47.878 -38.839)" fill="#100f10"/>
      <path id="Path_48" data-name="Path 48" d="M407.42,337.35c.035.144.031.385.111.416.439.176.713.586.5.909-.321.5-.719-.015-.963-.22-.336-.283-1.152-.354-.705-1.128.048-.083.279-.06.425-.086C407.028,337.123,407.249,337.09,407.42,337.35Z" transform="translate(-25.185 -69.619)" fill="#d9001a"/>
      <path id="Path_49" data-name="Path 49" d="M422.737,285.56c1.387,1.413,1.387,1.413.159,2.366Z" transform="translate(-36.622 -33.859)" fill="#100f10"/>
      <path id="Path_50" data-name="Path 50" d="M422.355,273.984c1.985.371.956,1.26.327,2.4Z" transform="translate(-36.357 -25.836)" fill="#100f10"/>
      <path id="Path_51" data-name="Path 51" d="M415.2,246c.186.863-.474.572-.837.569-.455,0-.4-.4-.3-.664a5.262,5.262,0,0,1,.528-.861C415.458,244.935,414.882,245.751,415.2,246Z" transform="translate(-30.562 -5.768)" fill="#d9001a"/>
      <path id="Path_52" data-name="Path 52" d="M405.265,303.41c-.39-.337-.331-.877-1.2-1.235h1.8A2.188,2.188,0,0,1,405.265,303.41Z" transform="translate(-23.682 -45.375)" fill="#d9001a"/>
      <path id="Path_53" data-name="Path 53" d="M408.966,295.638l1.155.007a.237.237,0,0,1,.358.065,1.7,1.7,0,0,1-2.513.586c.212-.371.744-.232.957-.6Z" transform="translate(-26.384 -40.812)" fill="#d9001a"/>
      <path id="Path_54" data-name="Path 54" d="M417.2,276.4a1.378,1.378,0,0,1,.085-1.978c.353.473.177.972.281,1.414C417.64,276.146,417.793,276.513,417.2,276.4Z" transform="translate(-32.524 -26.137)" fill="#d9001a"/>
      <path id="Path_55" data-name="Path 55" d="M407.582,295.609c.307,1.2-.69.317-.957.6-.244.027-.478.03-.594-.249C406.421,295.28,407,295.451,407.582,295.609Z" transform="translate(-25.043 -40.726)" fill="#d9001a"/>
      <path id="Path_56" data-name="Path 56" d="M408.593,256.725c-.629.793-.156,1.728-.332,2.58a3.4,3.4,0,0,1,.042-3.148C408.828,256.127,408.774,256.393,408.593,256.725Z" transform="translate(-26.334 -13.478)" fill="#d9001a"/>
      <path id="Path_57" data-name="Path 57" d="M418.474,287.687a3.077,3.077,0,0,1,.183,1.808C418.011,289.019,418.033,288.519,418.474,287.687Z" transform="translate(-33.446 -35.334)" fill="#d9001a"/>
      <path id="Path_58" data-name="Path 58" d="M398.072,252.1c-.264.737.077.97.761.917a1.19,1.19,0,0,1-1.695-.028c-.08-.268.07-.409.284-.513Z" transform="translate(-18.863 -10.666)" fill="#d9001a"/>
      <path id="Path_59" data-name="Path 59" d="M386.863,291.632c-.453.581-1.481.11-1.779.975-.117-.512-.562-1.2.574-1.018A9.708,9.708,0,0,0,386.863,291.632Z" transform="translate(-10.396 -38.018)" fill="#d9001a"/>
      <path id="Path_60" data-name="Path 60" d="M376.234,298.429c-.53.406.074.918-.125,1.355a1.633,1.633,0,0,1-.55-1.589c.025-.218.173-.415.372-.373C376.221,297.882,376.159,298.209,376.234,298.429Z" transform="translate(-3.908 -42.354)" fill="#d9001a"/>
      <path id="Path_61" data-name="Path 61" d="M403.141,346.095c.4-.5,1.185.037,1.543-.576.319,0,.387.448.757.447A4.994,4.994,0,0,1,403.141,346.095Z" transform="translate(-23.039 -75.418)" fill="#d9001a"/>
      <path id="Path_62" data-name="Path 62" d="M414.87,255.107c-1.085.489-.641,1.471-.734,2.28C413.417,255.54,413.567,255.074,414.87,255.107Z" transform="translate(-30.363 -12.75)" fill="#d9001a"/>
      <path id="Path_63" data-name="Path 63" d="M389.778,310.452c-.361-.478-.986-1.041.314-.989.336-.145.458.039.511.332C390.312,309.993,390.454,310.737,389.778,310.452Z" transform="translate(-13.451 -50.392)" fill="#d9001a"/>
      <path id="Path_64" data-name="Path 64" d="M418.309,332.793c-.57-.326.056-1.256-.739-1.468.2-.2.382-.538.588-.55.3-.018.188.366.206.575.031.382.01.769.011,1.153C418.472,332.627,418.444,332.722,418.309,332.793Z" transform="translate(-33.04 -65.198)" fill="#d9001a"/>
      <path id="Path_65" data-name="Path 65" d="M418.052,279.589c.368-.028.252-.372.366-.564a1.8,1.8,0,0,1,.161,1.553C417.907,280.487,418.079,279.986,418.052,279.589Z" transform="translate(-33.374 -29.33)" fill="#d9001a"/>
      <path id="Path_66" data-name="Path 66" d="M409.514,254.513c.03-.254-.006-.475-.29-.568a1.1,1.1,0,0,1,.536-.981v1.893Z" transform="translate(-27.255 -11.267)" fill="#d9001a"/>
      <path id="Path_67" data-name="Path 67" d="M434.363,299.748c-.659.417-.577,1.081-1.193,1.087-.1,0-.323-.329-.289-.447C433.049,299.819,433.541,299.834,434.363,299.748Z" transform="translate(-43.651 -43.693)" fill="#100f10"/>
      <path id="Path_68" data-name="Path 68" d="M417.787,260.119l.1-2.605C418.156,258.394,418.594,259.281,417.787,260.119Z" transform="translate(-33.191 -14.42)" fill="#d9001a"/>
      <path id="Path_69" data-name="Path 69" d="M419.124,336.7a1.967,1.967,0,0,0,.066-.29,2.948,2.948,0,0,1,.175,1.933c-.137.62-.444.274-.618-.081C419.476,337.885,419.1,337.242,419.124,336.7Z" transform="translate(-33.856 -69.102)" fill="#d9001a"/>
      <path id="Path_70" data-name="Path 70" d="M380.187,274.837a2.858,2.858,0,0,1,0,2.537A5.423,5.423,0,0,1,380.187,274.837Z" transform="translate(-7.022 -26.427)" fill="#d9001a"/>
      <path id="Path_71" data-name="Path 71" d="M399.712,246.181c.687.549,1.333,1.1.175,1.828A2.134,2.134,0,0,0,399.712,246.181Z" transform="translate(-20.663 -6.565)" fill="#d9001a"/>
      <path id="Path_72" data-name="Path 72" d="M406.943,286.914c-.472-.7-1.09-1.407.142-1.982C406.651,285.565,407,286.255,406.943,286.914Z" transform="translate(-25.273 -33.424)" fill="#d9001a"/>
      <path id="Path_73" data-name="Path 73" d="M393.985,276.22l.659-1.216c0,.388.007.777-.012,1.164-.01.2.157.556-.271.466C394.213,276.6,394.109,276.364,393.985,276.22Z" transform="translate(-16.693 -26.543)" fill="#d9001a"/>
      <path id="Path_74" data-name="Path 74" d="M374.976,278.99l-.649-.311a1.644,1.644,0,0,1,.649-1.529Z" transform="translate(-3.055 -28.031)" fill="#d9001a"/>
      <path id="Path_75" data-name="Path 75" d="M449.048,281.992c.111.294.4.22.616.3-.636.566-1.184.27-1.858-.246Z" transform="translate(-53.997 -31.386)" fill="#100f10"/>
      <path id="Path_76" data-name="Path 76" d="M370.656,300.089l-.754-.417.292-1.81Z" transform="translate(-0.001 -42.386)" fill="#d9001a"/>
      <path id="Path_77" data-name="Path 77" d="M392.239,308.235a.431.431,0,0,0-.38-.428c-.034-.411.189-.631.643-.784a1.713,1.713,0,0,1-.173,1.463c-.1-.028-.145-.074-.139-.139S392.213,308.235,392.239,308.235Z" transform="translate(-15.217 -48.736)" fill="#d9001a"/>
      <path id="Path_78" data-name="Path 78" d="M447.057,249.951v-1.412a1.155,1.155,0,0,1,.5,1.12C447.453,249.867,447.313,250.008,447.057,249.951Z" transform="translate(-53.478 -8.199)" fill="#100f10"/>
      <path id="Path_79" data-name="Path 79" d="M391.538,310.971a1.013,1.013,0,0,0,.09.252c-.066.307.205.764-.262.887-.4.107-.408-.324-.521-.578Z" transform="translate(-14.516 -51.472)" fill="#d9001a"/>
      <path id="Path_80" data-name="Path 80" d="M402.247,310.971c-.422-.223-1,.018-1.34-.447a8.133,8.133,0,0,1,1.3-.062C402.778,310.405,402.352,310.775,402.247,310.971Z" transform="translate(-21.491 -51.115)" fill="#d9001a"/>
      <path id="Path_81" data-name="Path 81" d="M392,328c-.3-.4-.66-.2-1.01-.095.19-.286.2-.833.653-.748A.61.61,0,0,1,392,328Z" transform="translate(-14.617 -62.685)" fill="#d9001a"/>
      <path id="Path_82" data-name="Path 82" d="M407.805,278.04,405.991,278C406.605,277.54,407.214,277.354,407.805,278.04Z" transform="translate(-25.015 -28.334)" fill="#d9001a"/>
      <path id="Path_83" data-name="Path 83" d="M413.189,332.636c-.423.449-1.07.125-1.53.443-.2-.192-.337-.4.09-.428C412.227,332.617,412.709,332.638,413.189,332.636Z" transform="translate(-28.811 -66.485)" fill="#d9001a"/>
      <path id="Path_84" data-name="Path 84" d="M379.1,305.8l2.08-.006A1.584,1.584,0,0,1,379.1,305.8Z" transform="translate(-6.379 -47.882)" fill="#d9001a"/>
      <path id="Path_85" data-name="Path 85" d="M411.759,284.624l.718-.163c.026.331.186.789-.284.849C411.867,285.351,411.89,284.872,411.759,284.624Z" transform="translate(-29.012 -33.098)" fill="#d9001a"/>
      <path id="Path_86" data-name="Path 86" d="M409.378,267.8l1.123.637C409.658,269.058,409.684,268.137,409.378,267.8Z" transform="translate(-27.362 -21.552)" fill="#d9001a"/>
      <path id="Path_87" data-name="Path 87" d="M394.609,338.928c-.247-.207-.505-.526-.115-.7.433-.194.357.325.466.563A.3.3,0,0,1,394.609,338.928Z" transform="translate(-16.907 -70.334)" fill="#d9001a"/>
      <path id="Path_88" data-name="Path 88" d="M376.279,288.5c.191-.345.766-.118.874-.588.233-.048.409.042.431.274.008.082-.149.248-.246.26C376.988,288.49,376.633,288.486,376.279,288.5Z" transform="translate(-4.421 -35.481)" fill="#d9001a"/>
      <path id="Path_89" data-name="Path 89" d="M395.321,340.295l.35-.138.992.138-.989.728Z" transform="translate(-17.619 -71.701)" fill="#d9001a"/>
      <path id="Path_90" data-name="Path 90" d="M391.87,292.142c-.041-.466.068-1.019-.635-1.1.176-.324.571-.444.749-.246C392.361,291.215,392.179,291.711,391.87,292.142Z" transform="translate(-14.787 -37.419)" fill="#d9001a"/>
      <path id="Path_91" data-name="Path 91" d="M395.97,253.136l-.284.514c-.284-.065-.763-.121-.647-.434C395.163,252.886,395.647,253.168,395.97,253.136Z" transform="translate(-17.412 -11.329)" fill="#d9001a"/>
      <path id="Path_92" data-name="Path 92" d="M447.055,252.48l.5-.293a1.979,1.979,0,0,1-.2,1.574c-.125-.309.037-.708-.3-.95Z" transform="translate(-53.476 -10.728)" fill="#100f10"/>
      <path id="Path_93" data-name="Path 93" d="M416.551,245.6l-.608-.955C416.61,244.315,416.61,244.315,416.551,245.6Z" transform="translate(-31.913 -5.372)" fill="#d9001a"/>
      <path id="Path_94" data-name="Path 94" d="M408.674,335.589l-.628-.109c.032-.278.065-.556.1-.869A1.111,1.111,0,0,1,408.674,335.589Z" transform="translate(-26.439 -67.858)" fill="#d9001a"/>
      <path id="Path_95" data-name="Path 95" d="M449.111,335.049l-.347-.048c.083-.233-.163-.717.313-.632C449.356,334.418,449.488,334.8,449.111,335.049Z" transform="translate(-54.661 -67.682)" fill="#100f10"/>
      <path id="Path_96" data-name="Path 96" d="M384.364,286.6l1.543-.172C385.478,287.25,384.926,286.964,384.364,286.6Z" transform="translate(-10.025 -34.46)" fill="#d9001a"/>
      <path id="Path_97" data-name="Path 97" d="M405.35,344.238a1.23,1.23,0,0,1-1.261-.578A1.992,1.992,0,0,1,405.35,344.238Z" transform="translate(-23.696 -74.129)" fill="#d9001a"/>
      <path id="Path_98" data-name="Path 98" d="M415.347,294.416l-.358-.065c.126-.216-.052-.732.383-.61C415.7,293.833,415.683,294.2,415.347,294.416Z" transform="translate(-31.251 -39.517)" fill="#d9001a"/>
      <path id="Path_99" data-name="Path 99" d="M406.3,249.892l.862-1.006A.843.843,0,0,1,406.3,249.892Z" transform="translate(-25.231 -8.44)" fill="#d9001a"/>
      <path id="Path_100" data-name="Path 100" d="M398.059,299.046c.133-.295.423-.346.538-.112.083.168-.177.414-.455.445Q397.864,299.272,398.059,299.046Z" transform="translate(-19.461 -43.027)" fill="#d9001a"/>
      <path id="Path_101" data-name="Path 101" d="M397.673,299.631q.041.166.083.332l-.334-.067Z" transform="translate(-19.075 -43.612)" fill="#d9001a"/>
    </g>
  </g>
</svg>
