<svg xmlns="http://www.w3.org/2000/svg" width="412.839" height="442.384" viewBox="0 0 412.839 442.384">
  <g id="Group_6" data-name="Group 6" transform="translate(-140.779 -56.626)">
    <path id="Path_1" data-name="Path 1" d="M166.941,481.977V357.454l101.83,60.223,109.741-60.223V481.977L268.771,543.712Z" transform="translate(74.878 -237.604)" fill="#ff5b00"/>
    <path id="Path_2" data-name="Path 2" d="M164.582,406.876l101.967-63.25,109.592,63.222L266.388,467.084Z" transform="translate(77.263 -287)" fill="#ff8b00"/>
    <path id="Path_3" data-name="Path 3" d="M167.779,485.553v-129.1L268.09,416.739l102.844-56.914.007,125.728L268.09,543.477Z" transform="translate(-27 -53.724)" fill="#ee0014"/>
    <path id="Path_4" data-name="Path 4" d="M163.976,401.4l101.318-58.429,101.841,61.744L264.3,461.71Z" transform="translate(-23.18 -98.603)" fill="#f6282c"/>
    <path id="Path_5" data-name="Path 5" d="M167.2,481.264l.042-125.862,107.594,57.059L377.41,355.128l.03,126.137L275.019,548.327Z" transform="translate(176.113 -49.317)" fill="#763180"/>
    <path id="Path_6" data-name="Path 6" d="M162.447,404.776,272.176,343l100.513,61.5L270.018,461.97Z" transform="translate(180.928 -98.679)" fill="#93499e"/>
  </g>
</svg>
