<svg xmlns="http://www.w3.org/2000/svg" width="130.827" height="151.206" viewBox="0 0 130.827 151.206">
  <g id="Kiakaha-logo" transform="translate(-722.248 -222.677)">
    <path id="Path_9" data-name="Path 9" d="M757.2,233c-9.656,3.161-26.628,10.17-32.638,29.651,17.409,13.018,2.851,23.028-1.759,23.444.752,6.911,5.144,14.982,8.046,17.2-8.046-17.2,6.166-29.764,11.893-35.1C741.118,265.933,737.736,242.409,757.2,233Z" transform="translate(0 -7.146)" fill="#34044a" stroke="#000" stroke-miterlimit="10" stroke-width="1"/>
    <path id="Path_10" data-name="Path 10" d="M870.192,274.077c12.329,14.736-47.348,20.393-48.74-19.9-1.1-31.826,31.734-33.472,48.339-28.909s65.617,32.422,54.382,101.419c-4.207-25.036-36.552-16.726-37.047,6.161-1.656-3.285-10.187-12.24-17.391-12.5,41.906-14.3,36.195-60.609-3.244-64.128-16.223-.981-19.009,7.594-18.78,14.268C848.412,283.309,876,285.955,870.192,274.077Z" transform="translate(-73.297 0)" fill="#34044a" stroke="#000" stroke-miterlimit="10" stroke-width="1"/>
    <path id="Path_11" data-name="Path 11" d="M1132.356,608.8c-.84,5.426-13,32.825-20.026,37.694.2-23.9-10.426-26.621-8.074-40.321,6.176-29.507,35.737-6.888,18.054,1.947,11.823-7.347-1.949-19.2-8.719-6.893-4,10.673,2.355,16.107,9.754,14.566S1132.356,608.8,1132.356,608.8Z" transform="translate(-283.242 -273.576)" fill="#34044a" stroke="#000" stroke-miterlimit="10" stroke-width="1"/>
    <path id="Path_12" data-name="Path 12" d="M776.343,381.249c4.214,17.841,58.493,34.469,61.75,9.687.93-10.311-33.375-21.459-21.754-4.9C804,371.041,831.1,374.474,840.861,381.845c11.089,8.611,18.4,34.312-15.193,43.693-4.15-8.593-12.853-29.877-34.03-18.1-.08-17.214-16.508-16.646-19.612-9.859-4.982,11.993,11.081,15.807,12.037,6.266.716,5.886-4.733,11.726-12.815,8.408C762.609,407.675,761.484,389.983,776.343,381.249Z" transform="translate(-31.303 -113.089)" fill="#34044a" stroke="#000" stroke-miterlimit="10" stroke-width="1"/>
    <path id="Path_13" data-name="Path 13" d="M773.16,516.8c2.406,2.743,18.277,15.814,51.269,11.333-.177-5.134-7.684-21.577-20.383-17.283,11.531-.912,10.347,9.407,3.993,11.425-3.292,1.4-12.992,3.274-12.427-10.105C791.576,521.818,786.275,524.571,773.16,516.8Z" transform="translate(-37.427 -213.118)" fill="#34044a" stroke="#000" stroke-miterlimit="10" stroke-width="1"/>
    <path id="Path_14" data-name="Path 14" d="M800.08,591.17" transform="translate(-57.434 -273.335)" fill="#34044a" stroke="#000" stroke-miterlimit="10" stroke-width="1"/>
    <path id="Path_15" data-name="Path 15" d="M1075.72,228.44" transform="translate(-262.287 -3.757)" fill="#34044a" stroke="#000" stroke-miterlimit="10" stroke-width="1"/>
  </g>
</svg>
