<svg xmlns="http://www.w3.org/2000/svg" width="168" height="154.953" viewBox="0 0 168 154.953">
  <g id="Group_147" data-name="Group 147" transform="translate(-1252 -788.047)">
    <g id="drag" transform="translate(1261.992 793.047)">
      <g id="Group_10" data-name="Group 10" transform="translate(52.102 4.281)">
        <g id="Group_9" data-name="Group 9" transform="translate(0)">
          <path id="Path_3" data-name="Path 3" d="M153.771,21.333a15.127,15.127,0,0,0-15.112,15.112,14.915,14.915,0,0,0,1.953,7.311,1.889,1.889,0,1,0,3.3-1.836,11.19,11.19,0,0,1-1.477-5.474,11.334,11.334,0,1,1,22.668,0,11.168,11.168,0,0,1-.45,2.966,1.894,1.894,0,0,0,1.326,2.32A1.865,1.865,0,0,0,168.3,40.4a14.812,14.812,0,0,0,.582-3.959A15.127,15.127,0,0,0,153.771,21.333Z" transform="translate(-138.659 -21.333)" fill="#29ad85"/>
        </g>
      </g>
      <g id="Group_12" data-name="Group 12" transform="translate(116.704 -5)">
        <g id="Group_11" data-name="Group 11">
          <path id="Path_4" data-name="Path 4" d="M76.547,0a1.89,1.89,0,0,0-1.889,1.889V32.114a1.889,1.889,0,1,0,3.778,0V1.889A1.89,1.89,0,0,0,76.547,0Z" transform="translate(-74.658)" fill="#29ad85"/>
        </g>
      </g>
      <g id="Group_14" data-name="Group 14" transform="translate(109.151 -4.997)">
        <g id="Group_13" data-name="Group 13" transform="translate(0)">
          <path id="Path_5" data-name="Path 5" d="M50.344,8.125,42.788.569a1.89,1.89,0,0,0-2.671,0L32.561,8.125A1.889,1.889,0,0,0,35.232,10.8L41.45,4.573,47.669,10.8a1.89,1.89,0,1,0,2.675-2.671Z" transform="translate(-32.008 -0.016)" fill="#29ad85"/>
        </g>
      </g>
      <g id="Group_16" data-name="Group 16" transform="translate(38.555 11.837)">
        <g id="Group_15" data-name="Group 15" transform="translate(0)">
          <path id="Path_6" data-name="Path 6" d="M124.825,90.446a7.531,7.531,0,0,0-4.2,1.277,7.557,7.557,0,0,0-11.334-3.778,7.575,7.575,0,0,0-7.133-5.055,7.5,7.5,0,0,0-3.778,1.016V71.556a7.556,7.556,0,1,0-15.112,0V103.67L76.7,98.747a9.909,9.909,0,0,0-12.879.914,5.671,5.671,0,0,0,0,8.013l26.9,26.907a16.9,16.9,0,0,0,12.026,4.979H111.6a20.8,20.8,0,0,0,20.779-20.779V98A7.564,7.564,0,0,0,124.825,90.446Zm3.778,28.335a17.022,17.022,0,0,1-17,17H102.75A13.139,13.139,0,0,1,93.4,131.91L66.492,105a1.89,1.89,0,0,1,0-2.671,6.114,6.114,0,0,1,7.945-.563l9.585,7.19a1.889,1.889,0,0,0,3.022-1.511V71.556a3.778,3.778,0,1,1,7.556,0V99.892a1.889,1.889,0,1,0,3.778,0V90.447a3.778,3.778,0,1,1,7.556,0v9.445a1.889,1.889,0,1,0,3.778,0V94.225a3.778,3.778,0,0,1,7.556,0v5.667a1.889,1.889,0,1,0,3.778,0V98a3.778,3.778,0,1,1,7.556,0Z" transform="translate(-62.163 -64)" fill="#29ad85"/>
        </g>
      </g>
      <g id="Group_17" data-name="Group 17" transform="translate(31.343 93.934) rotate(180)">
        <g id="Group_11-2" data-name="Group 11">
          <path id="Path_4-2" data-name="Path 4" d="M1.889,0A1.89,1.89,0,0,0,0,1.889V32.114a1.889,1.889,0,1,0,3.778,0V1.889A1.89,1.89,0,0,0,1.889,0Z" fill="#29ad85"/>
        </g>
      </g>
      <g id="Group_18" data-name="Group 18" transform="translate(38.896 93.931) rotate(180)">
        <g id="Group_13-2" data-name="Group 13" transform="translate(0 0)">
          <path id="Path_5-2" data-name="Path 5" d="M18.336,8.109,10.78.553a1.89,1.89,0,0,0-2.671,0L.553,8.109A1.889,1.889,0,0,0,3.224,10.78L9.442,4.557l6.219,6.222a1.89,1.89,0,1,0,2.675-2.671Z" fill="#29ad85"/>
        </g>
      </g>
    </g>
    <text id="Reorder_List" data-name="Reorder List" transform="translate(1336 936)" fill="#29ad85" font-size="30" font-family="Raleway-Regular, Raleway"><tspan x="-83.385" y="0">Reorder List</tspan></text>
  </g>
</svg>
