<svg xmlns="http://www.w3.org/2000/svg" width="1137.25" height="360" viewBox="0 0 1137.25 360">
  <g id="Group_183" data-name="Group 183" transform="translate(1294.5 229)">
    <path id="Path_56" data-name="Path 56" d="M25,0,8.3-62,.5-64v-5.5l28-.5v6l-8.7,2L30.5-16.7,47-69.5l9.5-.5L72.7-15.6,85.1-62,76-64v-5.5l27-.5v6l-7.9,2L77.5,0h-11L51.6-56.8,48.5-45.5,35,0ZM136-6V0H107.5V-6L116-8V-62l-8.5-2v-5.5L136-70v6l-9.5,2v22H160V-62l-9.5-2v-5.5L179-70v6l-8.5,2V-8L179-6V0H150.5V-6L160-8V-32H126.5V-8Zm46,6V-6l8.2-1.9L213-69.5l10-.5L245.2-7.9,253.5-6V0h-29V-6l9.3-1.9L230-19H204L200.1-7.9,209.5-6V0Zm35.2-57.1L206.7-27h20.6ZM293.5-6V0H263V-6l10-2V-62H260l-2.5,10H251V-70h54.5v18H299l-2.5-10h-13V-8Zm61,6L337.8-62,330-64v-5.5l28-.5v6l-8.7,2L360-16.7l16.5-52.8L386-70l16.2,54.4L414.6-62l-9.1-2v-5.5l27-.5v6l-7.9,2L407,0H396L381.1-56.8,378-45.5,364.5,0Zm125-62H458v21.5h23v8H458V-8h23l2-10h6.5V0H439V-6l8.5-2V-62L439-64v-5.5l19-.5h30.5v17H482ZM52,69.9,49.3,58.5a36.866,36.866,0,0,0-12.8-2q-10.2,0-15.6,7.4T15.5,84.6q0,13.4,5.85,19.9T37,111a24.777,24.777,0,0,0,4.75-.5,28.123,28.123,0,0,0,4.95-1.45,45.509,45.509,0,0,0,4.4-2A22.978,22.978,0,0,0,54.4,105l2.6-2,4,6.5a32.984,32.984,0,0,1-5.05,4.1,41.325,41.325,0,0,1-6.1,3.35,36.471,36.471,0,0,1-6.75,2.25,31.763,31.763,0,0,1-7.1.8q-15.3,0-23.65-8.85T4,85.3A47.564,47.564,0,0,1,6.35,69.9,33.13,33.13,0,0,1,13.1,58.15a30.2,30.2,0,0,1,10.55-7.5A34.671,34.671,0,0,1,37.5,48a40.237,40.237,0,0,1,5.05.35q2.75.35,5.4.95t5,1.25A37.751,37.751,0,0,1,56.8,51.8L60,53l-.5,16.9ZM59.5,119v-6l8.2-1.9L90.5,49.5l10-.5,22.2,62.1L131,113v6H102v-6l9.3-1.9L107.5,100h-26l-3.9,11.1L87,113v6ZM94.7,61.9,84.2,92h20.6ZM184,119,151,63.9V111l9.5,2v6h-27v-6l8.5-2V57l-8.5-2V49.5l21-.5,33,55.9V57L179,55V49.5l26-.5v6l-8.5,2v62Zm72.5-8H268q9.9,0,15.45-6.8T289,83.7q0-13.8-5.4-20.25T268.5,57h-12Zm-19,8v-6l8.5-2V57l-8.5-2V49.5l19-.5H269a36.694,36.694,0,0,1,13.25,2.25,26.118,26.118,0,0,1,9.9,6.6,29.194,29.194,0,0,1,6.2,10.7A45.3,45.3,0,0,1,300.5,83.1a43.909,43.909,0,0,1-2.35,14.8,32.818,32.818,0,0,1-6.65,11.3,29.118,29.118,0,0,1-10.4,7.25A34.94,34.94,0,0,1,267.5,119ZM351,57H329.5V78.5h23v8h-23V111h23l2-10H361v18H310.5v-6l8.5-2V57l-8.5-2V49.5l19-.5H360V66h-6.5Zm31,41.5,2,10.5a19.967,19.967,0,0,0,4.9,1.75,25.88,25.88,0,0,0,6.1.75,22.32,22.32,0,0,0,5.8-.75,16.423,16.423,0,0,0,4.9-2.15,11.455,11.455,0,0,0,3.35-3.35,8.066,8.066,0,0,0,1.25-4.45,7.394,7.394,0,0,0-1.6-4.85,14.656,14.656,0,0,0-4.15-3.4A33.934,33.934,0,0,0,398.8,90q-3.2-1.1-6.5-2.3-3.5-1.5-6.75-3.05a24.921,24.921,0,0,1-5.8-3.8,16.531,16.531,0,0,1-4.05-5.45,18.558,18.558,0,0,1-1.5-7.9,18.407,18.407,0,0,1,1.95-8.7,17.757,17.757,0,0,1,5.2-6.1,22.2,22.2,0,0,1,7.6-3.55A35.66,35.66,0,0,1,398.1,48a39.558,39.558,0,0,1,4.7.3q2.5.3,4.9.75t4.5,1q2.1.55,3.6.95l3.2,1-.5,17H412l-3.4-10.7a34.225,34.225,0,0,0-5.55-1.3,39.211,39.211,0,0,0-5.65-.4,17.218,17.218,0,0,0-5.25.75,12.57,12.57,0,0,0-4,2.05,9.877,9.877,0,0,0-2.55,2.9,6.648,6.648,0,0,0-.9,3.3,8.671,8.671,0,0,0,2.8,6.6,24.291,24.291,0,0,0,6.7,4.1q4,1.7,8.65,3.2a45.606,45.606,0,0,1,8.6,3.75,21,21,0,0,1,6.6,5.85,15.472,15.472,0,0,1,2.65,9.4,20.306,20.306,0,0,1-2,9.2,19.659,19.659,0,0,1-5.5,6.75,24.962,24.962,0,0,1-8.3,4.2,35.45,35.45,0,0,1-10.3,1.45,40.812,40.812,0,0,1-4.75-.3q-2.55-.3-5-.75t-4.55-1q-2.1-.55-3.5-1.05l-2.8-1V98.5Zm96.8-28.6-2.7-11.4a36.866,36.866,0,0,0-12.8-2q-10.2,0-15.6,7.4t-5.4,20.7q0,13.4,5.85,19.9T463.8,111a24.777,24.777,0,0,0,4.75-.5,28.123,28.123,0,0,0,4.95-1.45,45.51,45.51,0,0,0,4.4-2,22.978,22.978,0,0,0,3.3-2.05l2.6-2,4,6.5a32.985,32.985,0,0,1-5.05,4.1,41.325,41.325,0,0,1-6.1,3.35,36.47,36.47,0,0,1-6.75,2.25,31.763,31.763,0,0,1-7.1.8q-15.3,0-23.65-8.85T430.8,85.3a47.564,47.564,0,0,1,2.35-15.4,33.13,33.13,0,0,1,6.75-11.75,30.2,30.2,0,0,1,10.55-7.5A34.671,34.671,0,0,1,464.3,48a40.237,40.237,0,0,1,5.05.35q2.75.35,5.4.95t5,1.25a37.751,37.751,0,0,1,3.85,1.25l3.2,1.2-.5,16.9ZM495.3,119v-6l8.5-2V57l-8.5-2V49.5l19-.5h11q10.6,0,16.55,4.8T547.8,67q0,14.7-13,19.5,2.4,2.1,6,9l7.9,15.9,7.1,1.6v6h-15l-8.5-18.5q-3.5-7.5-6.05-9.75T518.8,88.5h-4.5V111l8.5,2v6Zm19-62V81h7.5q7.3,0,11.4-3.3a10.62,10.62,0,0,0,4.1-8.7,11.363,11.363,0,0,0-3.5-8.75,12.7,12.7,0,0,0-9-3.25Zm73.5,56v6H560.3v-6l8.5-2V57l-8.5-2V49.5l27.5-.5v6l-8.5,2v54Zm8,6v-6l8.5-2V57l-8.5-2V49.5l18.5-.5h11.5q9.8,0,15.65,4.4t5.85,13.1q0,12.9-13,16.2,7.8,1.8,11.65,6A14.682,14.682,0,0,1,649.8,99q0,20-25.5,20Zm18.5-32.5V111h10.5q14.5,0,14.5-11.5,0-7.2-4.35-10.1T621.8,86.5Zm0-29.5V79h7.5q7,0,11-2.85a9.5,9.5,0,0,0,4-8.25q0-5.5-3.2-8.2a12.431,12.431,0,0,0-8.3-2.7Zm87,0H679.8V78.5h23v8h-23V111h23l2-10h6.5v18H660.8v-6l8.5-2V57l-8.5-2V49.5l19-.5h30.5V66h-6.5Zm70.5,56v6H744.3v-6l8.5-2V57l-8.5-2V49.5l27.5-.5v6l-8.5,2v54Zm19-14.5,2,10.5a19.967,19.967,0,0,0,4.9,1.75,25.879,25.879,0,0,0,6.1.75,22.319,22.319,0,0,0,5.8-.75,16.424,16.424,0,0,0,4.9-2.15,11.455,11.455,0,0,0,3.35-3.35,8.066,8.066,0,0,0,1.25-4.45,7.394,7.394,0,0,0-1.6-4.85,14.656,14.656,0,0,0-4.15-3.4A33.934,33.934,0,0,0,807.6,90q-3.2-1.1-6.5-2.3-3.5-1.5-6.75-3.05a24.921,24.921,0,0,1-5.8-3.8,16.53,16.53,0,0,1-4.05-5.45,18.558,18.558,0,0,1-1.5-7.9,18.407,18.407,0,0,1,1.95-8.7,17.756,17.756,0,0,1,5.2-6.1,22.2,22.2,0,0,1,7.6-3.55A35.66,35.66,0,0,1,806.9,48a39.558,39.558,0,0,1,4.7.3q2.5.3,4.9.75t4.5,1q2.1.55,3.6.95l3.2,1-.5,17h-6.5l-3.4-10.7a34.225,34.225,0,0,0-5.55-1.3,39.21,39.21,0,0,0-5.65-.4,17.218,17.218,0,0,0-5.25.75,12.57,12.57,0,0,0-4,2.05,9.877,9.877,0,0,0-2.55,2.9,6.649,6.649,0,0,0-.9,3.3,8.672,8.672,0,0,0,2.8,6.6,24.29,24.29,0,0,0,6.7,4.1q4,1.7,8.65,3.2a45.606,45.606,0,0,1,8.6,3.75,21,21,0,0,1,6.6,5.85,15.472,15.472,0,0,1,2.65,9.4,20.307,20.307,0,0,1-2,9.2,19.659,19.659,0,0,1-5.5,6.75,24.961,24.961,0,0,1-8.3,4.2,35.451,35.451,0,0,1-10.3,1.45,40.814,40.814,0,0,1-4.75-.3q-2.55-.3-5-.75t-4.55-1q-2.1-.55-3.5-1.05l-2.8-1V98.5Z" transform="translate(-1295 -159)" fill="#333"/>
    <path id="Path_57" data-name="Path 57" d="M74.5-13.05V0H28.75V-13.05L40-16.8V-88.05l-11.25-4.5V-105l45.75-.75v13.2l-11.25,4.5V-16.8Zm53.55,0V0H85.3V-13.05L96.55-16.8V-88.05L85.3-92.55V-105l38.7-.75L146.5-55.8,170.05-105l36-.75v13.2l-10.8,4.5V-16.8l11.25,3.75V0H161.8V-13.05l11.7-3.75V-73.65q-2.7,7.05-6.225,14.625t-7.95,16.5Q154.9-33.6,152.5-28.5l-16.2.75L119.05-63.3l-2.55-7.8v54.3Zm135.3,0V0H217.6V-13.05l11.25-3.75V-88.05l-11.25-4.5V-105l34.5-.75h14.25q17.1,0,26.775,8.4t9.675,23.1q0,18.6-11.025,28.05T260.05-36.75H252.1V-16.8Zm-11.25-75V-54.3h7.95q9.45,0,14.475-4.35t5.025-12.6q0-7.5-3.975-12.15T264.1-88.05Zm96.45,0V-63h30.3v16.5h-30.3v28.95H375.1L378.55-30h13.8V0h-78.3V-13.05L325.3-16.8V-88.05l-11.25-4.5V-105l34.5-.75h42V-76.8H376.6l-3.75-11.25Zm102.6,75V0h-45.3V-13.05L417.1-16.8V-88.05l-11.25-4.5V-105l34.5-.75h11.4q18.75,0,28.875,7.725T490.75-75.15q0,19.95-16.95,28.35a42.9,42.9,0,0,1,6.3,9.75L490.15-16.5l10.2,3.45V0H472.6L460-27.75q-4.05-9-6.375-11.4t-8.025-2.4h-5.25V-16.8Zm-10.8-75V-57.3h8.55q8.85,0,13.8-4.125t4.95-11.625q0-6.75-4.05-10.875T452.65-88.05Zm109.8,75V0H507.4V-13.05l11.25-3.75V-88.05l-11.25-4.5V-105l38.7-.75L568.6-55.8,592.15-105l36-.75v13.2l-10.8,4.5V-16.8l11.25,3.75V0H583.9V-13.05l11.7-3.75V-73.65q-2.7,7.05-6.225,14.625t-7.95,16.5Q577-33.6,574.6-28.5l-16.2.75L541.15-63.3l-2.55-7.8v54.3Zm153-92.7L735.4-16.5l10.5,3.45V0H698.2V-13.05l11.25-3.45-3.6-11.25h-33.3l-3.75,11.1,11.7,3.6V0H635.2V-13.05l10.95-3.45,33-88.8Zm-13.5,26.4L677.8-43.8h23.1Zm106.8,66.3V0h-43.5V-13.05L764.2-16.8V-88.05l-11.25-4.5V-105l36-.75,40.5,69.3v-51.6l-10.95-4.5V-105l42.75-.75v13.2L850-88.05V0H824.95l-40.2-67.95V-16.8Zm111.75-75V-63h30.3v16.5H908.2v28.95h26.55L938.2-30H952V0H873.7V-13.05l11.25-3.75V-88.05l-11.25-4.5V-105l34.5-.75h42V-76.8H936.25L932.5-88.05Zm100.05,75V0h-43.5V-13.05L976-16.8V-88.05l-11.25-4.5V-105l36-.75,40.5,69.3v-51.6l-10.95-4.5V-105l42.75-.75v13.2l-11.25,4.5V0h-25.05l-40.2-67.95V-16.8Zm90,13.05V-13.05l12.3-3.75V-88.05H1096.3l-3.75,14.25h-13.8v-31.5l87-.45V-73.8H1151.8l-3.75-14.25H1133.8V-16.8l12.45,3.75V0Z" transform="translate(-1323 131)" fill="#8529ad"/>
  </g>
</svg>
