<svg xmlns="http://www.w3.org/2000/svg" width="1920" height="1008" viewBox="0 0 1920 1008">
  <g id="Group_160" data-name="Group 160" transform="translate(-1089 3613)">
    <g id="Group_158" data-name="Group 158" transform="translate(0 -881.987)">
      <g id="Group_157" data-name="Group 157" transform="translate(1089 -2731.013)">
        <path id="Path_21" data-name="Path 21" d="M0,0H1920V1008H0Z" transform="translate(0 0)" fill="#ededed"/>
        <path id="Subtraction_1" data-name="Subtraction 1" d="M1920,1008H1778.286a955.456,955.456,0,0,0,104.555-236.661c6.048-21.039,11.436-42.565,16.014-63.982,4.619-21.611,8.535-43.677,11.639-65.585,3.135-22.125,5.524-44.676,7.1-67.025,1.545-21.879,2.353-44.149,2.4-66.192Zm-611.048,0h-697.9A611.245,611.245,0,0,1,391.737,728.394a604.134,604.134,0,0,1-36.142-143.312,614.548,614.548,0,0,1,.291-154.525A607.851,607.851,0,0,1,512.935,95.638,614.287,614.287,0,0,1,625.659,0h668.683a613.7,613.7,0,0,1,199.432,215.678,604.471,604.471,0,0,1,70.342,214.878,614.54,614.54,0,0,1,.291,154.525A607.592,607.592,0,0,1,1415.926,912.5a614.81,614.81,0,0,1-106.975,95.5h0ZM960,421.451c-144.3,0-261.689,117.394-261.689,261.69S815.7,944.83,960,944.83c240.33,0,435.853-195.522,435.853-435.852S1200.33,73.115,960,73.115,524.147,268.637,524.147,508.967a436.175,436.175,0,0,0,9.242,89.339A432.335,432.335,0,0,1,587.1,459.486,436.619,436.619,0,0,1,809.969,274.83a432.345,432.345,0,0,1,72.8-19.806c12.562-2.261,25.393-3.986,38.138-5.126,12.912-1.156,26.067-1.742,39.1-1.742,143.808,0,260.8,117,260.8,260.806s-117,260.816-260.8,260.816a87.268,87.268,0,0,1-17.461-1.76,86.159,86.159,0,0,1-30.981-13.037,86.894,86.894,0,0,1-31.391-38.12,86.19,86.19,0,0,1-5.049-16.263,87.477,87.477,0,0,1,0-34.922,86.17,86.17,0,0,1,13.037-30.981,86.893,86.893,0,0,1,38.12-31.391,86.193,86.193,0,0,1,16.263-5.049A87.3,87.3,0,0,1,960,596.493a87.521,87.521,0,0,0,0-175.042ZM141.714,1008H0V508.267c.044,22.142.852,44.508,2.4,66.48,1.578,22.349,3.968,44.9,7.1,67.025,3.1,21.908,7.02,43.974,11.639,65.585,4.577,21.414,9.965,42.94,16.014,63.982A955.478,955.478,0,0,0,141.714,1008v0h0ZM0,504.618H0V0H144.738A955.776,955.776,0,0,0,37.979,238.73c-6.18,21.251-11.685,43-16.363,64.632C16.9,325.2,12.893,347.494,9.72,369.637c-3.2,22.36-5.648,45.155-7.261,67.75C.871,459.609.045,482.229,0,504.618Zm1920-.283h0c-.049-22.3-.875-44.826-2.455-66.949-1.613-22.59-4.056-45.385-7.261-67.75-3.173-22.143-7.175-44.441-11.9-66.275-4.678-21.635-10.183-43.38-16.363-64.632A955.76,955.76,0,0,0,1775.264,0H1920Z" transform="translate(0 0)" fill="#fff"/>
      </g>
      <text id="Uploading_" data-name="Uploading…" transform="translate(1326 -2123.013)" fill="#292929" font-size="100" font-family="PlayfairDisplay-Regular, Playfair Display"><tspan x="456.95" y="108">Uploading…</tspan></text>
      <g id="upload" transform="translate(1811.37 -2483.578)">
        <g id="Group_156" data-name="Group 156" transform="translate(0 0)">
          <path id="Path_20" data-name="Path 20" d="M386.282,205.778a149.653,149.653,0,0,0-279.508-39.916,119.75,119.75,0,0,0,12.973,238.795H379.2a99.825,99.825,0,0,0,99.789-99.789C478.985,252.18,437.972,209.471,386.282,205.778ZM279.408,264.952v79.83H199.578v-79.83H139.7l99.788-99.788,99.789,99.789H279.408Z" transform="translate(0 -85.333)" fill="#292929"/>
        </g>
      </g>
    </g>
  </g>
</svg>
